<svg version="1.1" id="Layer_1" xmlns:x="ns_extend;" xmlns:i="ns_ai;" xmlns:graph="ns_graphs;" xmlns="http://www.w3.org/2000/svg" xmlns:xlink="http://www.w3.org/1999/xlink" x="0px" y="0px" viewBox="0 0 300.5 50" style="enable-background:new 0 0 300.5 50;" xml:space="preserve">
 <style type="text/css">
  .st0{fill:#0076FF;}
 </style>
 <metadata>
  <sfw xmlns="ns_sfw;">
   <slices>
   </slices>
   <sliceSourceBounds bottomLeftOrigin="true" height="50" width="300.5" x="-198.9" y="20.9">
   </sliceSourceBounds>
  </sfw>
 </metadata>
 <g>
  <g>
   <g>
    <g>
     <polygon id="Rectangle-path" class="st0" points="0,0 13.8,0 13.8,13.9 0,13.9 				">
     </polygon>
     <polygon id="Rectangle-path_1_" class="st0" points="17.8,0 31.6,0 31.6,13.9 17.8,13.9 				">
     </polygon>
     <polygon id="Rectangle-path_2_" class="st0" points="35.6,0 49.4,0 49.4,13.9 35.6,13.9 				">
     </polygon>
     <polygon id="Rectangle-path_3_" class="st0" points="0,18 13.8,18 13.8,31.9 0,31.9 				">
     </polygon>
     <polygon id="Rectangle-path_4_" class="st0" points="17.8,18 31.6,18 31.6,31.9 17.8,31.9 				">
     </polygon>
     <polygon id="Rectangle-path_5_" class="st0" points="35.6,18 49.4,18 49.4,31.9 35.6,31.9 				">
     </polygon>
     <polygon id="Rectangle-path_6_" class="st0" points="0,36 13.8,36 13.8,49.9 0,49.9 				">
     </polygon>
     <polygon id="Rectangle-path_7_" class="st0" points="17.8,36 31.6,36 31.6,49.9 17.8,49.9 				">
     </polygon>
     <polygon id="Rectangle-path_8_" class="st0" points="35.6,36 49.4,36 49.4,49.9 35.6,49.9 				">
     </polygon>
    </g>
    <g transform="translate(31.636364, 0.000000)">
     <path class="st0" d="M54.7,17.3c7,0,13.7,4.8,13.7,16.3c0,11.9-7.6,16.4-15.7,16.4c-4.6,0-8.8-1.4-12-3.3V0h3.5v21.2
					C46.9,18.9,50.5,17.3,54.7,17.3z M52.5,46.8c6.4,0,12.4-3.8,12.4-13.2c0-8.3-4.6-13.1-10.6-13.1c-4,0-7.6,2.2-10.1,4.9v19.3
					C47.2,46.2,50,46.8,52.5,46.8z M74.6,0h3.4v49.4h-3.4V0z M107.7,39.7V17.8h3.5v31.6h-3.5v-6.1c-2.7,3.9-7.2,6.6-12,6.6
					c-5,0-9.7-2.8-9.7-12.5V17.8h3.5V37c0,7.5,3.7,9.6,7.3,9.6C101,46.6,104.8,44,107.7,39.7z M133.4,17.4c8.5,0.2,14.2,7,13.1,17
					h-25.3c0,5.9,4.1,12.1,12.4,12.4c3.7,0.1,7.1-1,9.8-2.4l1.2,2.9c-2.7,1.5-6.7,2.9-11.2,2.7c-10.6-0.3-16-8.7-15.6-17.5
					C118.2,22.5,125.5,17.1,133.4,17.4z M121.4,31.5h21.9c0.1-5.5-3.7-10.7-10.2-11C126.8,20.3,121.8,25,121.4,31.5z M169.5,17.3
					c6.3,0,10,4.8,10,11.8v20.3H176V29.9c0-6.8-3.5-9.3-7.3-9.3c-4.6,0-8.7,3.5-10.8,7.1v21.7h-3.5V0h3.5V24
					C160.5,20,164.7,17.3,169.5,17.3z M200.3,17.3c8.1,0,15.2,6,15.2,16.3c0,10.5-7.1,16.3-15.2,16.3c-9.1,0-15.2-7.3-15.2-16.3
					C185.1,24,191.9,17.3,200.3,17.3z M200.3,46.6c7.3,0,11.7-6.1,11.7-13.1c0-7-4.3-13-11.7-13c-7.5,0-11.6,6-11.6,13
					C188.7,40.5,192.7,46.6,200.3,46.6z M233.5,32.4c7.6,3,9.2,6.4,9.2,9.2c0,5-4.6,8.1-10.7,8.1c-3.5,0-6.8-1-10-2.9l1.5-3
					c2.6,1.8,5.6,2.7,8.4,2.7c3.3,0,7.4-1.4,7.3-4.7c0-2.8-3-5-7.8-6.9c-5.4-2.1-10-4.1-10-9.2s4.7-8.4,10.9-8.4
					c3.2,0,6.2,1,8.7,2.3l-1.3,2.8c-2-1-4.5-1.9-7.3-1.9c-5.2,0-7.6,2.5-7.6,5.2C224.8,29.2,228.6,30.4,233.5,32.4z M267.9,45.4
					l1,3.1c-2.1,0.8-4.5,1.4-7,1.4c-5.7,0-10.2-3.5-10.2-11.6V20.7h-5.6v-3h5.6V7.2h3.5v10.6h10.4v3h-10.4V38c0,5.1,2.1,8.4,6.7,8.6
					C263.9,46.7,266,46.2,267.9,45.4z">
     </path>
    </g>
   </g>
  </g>
 </g>
</svg>