<?xml version="1.0" standalone="no"?><!DOCTYPE svg PUBLIC "-//W3C//DTD SVG 1.1//EN" "http://www.w3.org/Graphics/SVG/1.1/DTD/svg11.dtd"><svg t="1770986719357" class="icon" viewBox="0 0 5810 1024" version="1.1" xmlns="http://www.w3.org/2000/svg" p-id="5832" xmlns:xlink="http://www.w3.org/1999/xlink" width="1134.765625" height="200"><path d="M4518.530977 69.108093c53.033674 4.834233 110.901581 19.289302 149.480186 38.578605 197.703442 81.991442 183.248372 284.529116 168.769488 361.686325-19.289302 77.157209-43.389023 183.248372-106.067349 303.794605-72.346791 139.859349-221.826977 231.471628-356.875907 236.30586-28.933953 0-48.199442 4.810419-91.612279 4.810419-38.578605 0-77.157209 0-106.091163-4.810419-265.239814-28.933953-332.728558-270.050233-284.529116-434.009302 38.578605-125.380465 19.289302-57.867907 62.70214-202.537674 43.389023-144.669767 154.314419-265.239814 356.852093-294.173768 81.967628-14.45507 130.214698-14.45507 207.371907-9.644651z m-1504.565582 28.933954l-67.512558 231.471627H2430.452093l308.628837 289.339535c62.70214 57.867907 86.80186 149.504 57.867907 226.66121-28.933953 81.967628-110.901581 139.835535-202.537674 139.835534H1928.930233l67.512558-226.637395h530.455814L2218.269767 469.373023c-62.70214-57.867907-86.80186-149.504-57.867907-226.661209 28.933953-86.80186 110.901581-144.669767 202.537675-144.669767h651.02586z m-2203.814697 0a778.47814 778.47814 0 0 1 67.512558 14.478883c168.793302 48.223256 173.603721 188.058791 168.793302 231.471628-4.834233 38.578605-57.867907 308.628837-125.380465 424.364651-81.991442 139.835535-183.248372 202.537674-284.529116 212.182326-24.099721 0-77.157209 4.810419-149.480186 4.810418H0l226.661209-752.28279-48.247069-96.446512-77.15721-135.025116S559.389767 49.818791 810.150698 98.042047z m655.836279 9.644651l48.223256 110.925395 163.959069 361.662512 139.859349-472.587907h270.050233L1846.914977 941.96093l-14.45507 38.578605H1591.367442l-33.768186-81.991442-183.224558-395.430698-139.859349 477.42214H959.630884L1210.415628 141.454884l9.668465-33.768186H1465.986977z m2030.187163-9.644651c101.280744 0 159.148651 14.478884 207.371907 33.768186 48.223256 24.099721 81.967628 48.223256 120.570046 101.25693 4.810419 4.834233 4.810419 9.644651 9.644651 14.478884 28.91014 53.033674 38.578605 125.380465 33.744372 178.414139-4.834233 53.057488-28.933953 154.314419-86.80186 236.305861-57.867907 81.967628-178.41414 139.835535-366.496744 139.835534h-255.595163l-53.033675 173.603721h-255.595162l115.735814-395.430697h9.644651v4.834232h356.875907c53.033674 0 101.25693 0 154.314418-14.478884 53.033674-14.45507 77.157209-38.578605 96.446512-67.512558 19.289302-38.578605 28.933953-86.80186 19.289302-120.546232-14.478884-33.768186-57.867907-57.867907-110.925395-57.867907h-453.298605l62.70214-226.661209h395.430697z m1890.351627 0c110.925395 0 183.248372 9.644651 236.305861 24.123534 163.95907 48.223256 173.603721 188.058791 168.769488 226.637396-4.810419 33.768186-57.867907 298.984186-125.356651 414.72-77.157209 135.025116-178.437953 202.537674-279.694884 207.371907-24.123535 0-77.157209 4.810419-149.504 4.810418h-477.398325l260.405581-877.663255h366.496744z m-935.531162 173.60372c-53.033674 0-62.678326 0-86.801861 9.644652-24.099721 9.644651-110.901581 28.933953-149.480186 154.314418-38.578605 125.380465-24.123535 81.991442-53.057488 159.148651-28.933953 72.322977-43.389023 207.348093 120.570046 216.992745 14.478884 0 28.933953 0 53.057489-4.810419 57.867907-9.644651 115.735814-48.223256 144.669767-101.280744 38.578605-77.157209 81.967628-212.182326 91.612279-245.926698 9.644651-48.223256 9.644651-91.636093-9.644651-125.380465-19.289302-33.768186-67.512558-62.70214-110.901581-62.70214z m766.761674 38.578605l-135.025116 453.298605h163.95907c72.322977 0 144.669767-14.45507 183.248372-86.801861 38.578605-67.512558 81.991442-216.992744 86.80186-250.76093 9.644651-38.578605-4.810419-101.25693-67.512558-110.901581-62.678326-4.834233-139.859349-4.834233-231.471628-4.834233z m-4740.357953-9.644651l-144.669768 462.943256h168.793302c72.346791 0 144.669767-14.45507 188.082605-91.612279 38.578605-72.346791 81.967628-221.826977 91.612279-255.595163 9.644651-43.389023-4.834233-101.25693-67.512558-110.901582-67.512558-4.834233-144.669767-4.834233-236.282046-4.834232z" fill="#2E95FF" p-id="5833"></path></svg>