<svg xmlns="http://www.w3.org/2000/svg" width="660" height="228" preserveAspectRatio="xMidYMid meet" viewBox="0 0 660 228"><path d="M185.726 97.557c-8.965 0-10.7-6.504-10.7-16.912 0-12.724 4.914-17.64 11.132-17.64 6.94 0 10.553 4.484 10.553 15.036 0 12.577-3.326 19.516-10.985 19.516zm-5.786 28.191c.868.144 1.737.29 2.748.29 12.723.866 16.481 2.745 16.481 9.254 0 5.057-4.481 11.127-14.746 11.127-9.83 0-12.144-3.612-12.144-8.237 0-4.628 3.471-9.399 7.661-12.434zm13.88-70.26c-2.458-.723-5.349-1.155-7.228-1.155-14.166 0-23.999 7.95-23.999 27.178 0 9.251 2.172 17.205 8.82 21.54-4.192 3.469-8.965 9.398-9.108 13.155-.145 3.757 3.18 6.36 8.674 7.953-6.073 4.046-10.842 9.83-10.842 16.766 0 7.521 3.76 16.483 23.274 16.483 19.226 0 27.612-11.278 27.612-23.71 0-11.418-8.673-15.613-17.926-16.91-10.841-1.45-18.216-1.881-18.216-4.339 0-2.025 1.88-4.483 3.758-6.507 1.881.433 4.049.578 6.509.578 16.769 0 23.419-9.976 23.419-25.297 0-7.23-2.17-12.724-5.641-16.337 2.025.436 3.76.723 5.35.723 2.458 0 4.046-1.448 4.046-4.626 0-2.604-.576-4.482-1.154-5.494zm-85.687-13.335c-5.122-3.626-12.21-2.412-15.834 2.707-4.45 6.29-9.375 10.954-14.98 14.174a40.928 40.928 0 01-3.05 1.58c-5.233 2.425-11.062 3.698-17.8 3.9-6.738-.202-12.57-1.476-17.805-3.901-6.894-3.195-12.792-8.348-18.034-15.753-3.623-5.12-10.712-6.333-15.831-2.707-5.121 3.622-6.335 10.71-2.71 15.832 7.487 10.581 16.58 18.4 27.026 23.24a61.835 61.835 0 006.29 2.51c-8.872 6.406-18.465 15.386-23.06 27.697-4.771 12.776-4.71 26.609.165 38.951 4.68 11.841 13.34 21.472 24.387 27.12 12.309 6.293 27.977 6.306 41.91.03 14.623-6.58 24.16-18.632 25.517-32.241 1.423-14.325-5.445-27.08-17.501-32.494-12.487-5.608-26.573-1.605-35.883 10.194-3.887 4.924-3.045 12.068 1.878 15.953 4.925 3.888 12.068 3.045 15.954-1.879 2.766-3.505 5.956-4.798 8.748-3.544 2.38 1.07 4.732 4.134 4.197 9.524-.533 5.336-5.22 10.617-12.233 13.775-7.59 3.413-16.115 3.588-22.248.453-6.122-3.13-10.951-8.543-13.597-15.239-1.988-5.026-3.603-13.042-.012-22.657 2.693-7.212 9.481-14.017 21.364-21.41 5.044-3.14 10.453-6.067 15.683-8.898 6.03-3.264 11.747-6.358 16.767-9.672 8.933-4.885 16.79-12.074 23.4-21.413 3.625-5.121 2.412-12.21-2.708-15.832zm144.345 76.657c-1.298 1.443-4.915 2.314-7.806 2.314-5.637 0-9.252-.58-9.252-13.015 0-12.72 4.913-14.742 10.7-14.742 2.021 0 4.914.288 6.794 1.302 0 10.407-.436 24.141-.436 24.141zm-2.6-64.477c-13.444 0-23.133 1.88-25.3 3.47-1.013.725-1.301 2.168-1.301 3.76 0 1.011.145 5.058 1.589 7.517 4.484-2.026 13.878-3.327 20.384-3.327 4.48 0 7.664 1.736 7.664 8.53v12.142c-2.892-1.442-7.374-1.878-10.988-1.878-9.252 0-18.793 3.613-18.793 23.71 0 21.973 10.119 22.842 20.67 22.695 9.398 0 16.192-2.315 20.098-4.77 0 0 .868-20.528.868-45.83v-8.384c0-13.01-5.493-17.635-14.891-17.635zM50.39 20.769a7.65 7.65 0 015.446-2.257c2.058 0 3.993.802 5.447 2.256a7.656 7.656 0 012.257 5.447 7.647 7.647 0 01-2.256 5.446 7.648 7.648 0 01-5.448 2.258 7.653 7.653 0 01-5.446-2.255 7.656 7.656 0 01-2.256-5.449c0-2.058.801-3.99 2.256-5.446zm5.446 31.663c7.002 0 13.587-2.728 18.538-7.68 4.95-4.95 7.677-11.532 7.677-18.537 0-7.002-2.727-13.585-7.678-18.538C69.424 2.727 62.839 0 55.837 0 48.836 0 42.252 2.727 37.3 7.68c-4.951 4.95-7.678 11.533-7.678 18.535 0 7.003 2.727 13.587 7.679 18.537 4.95 4.952 11.535 7.68 18.536 7.68zM440.56 113.46c-5.203 0-8.094 3.903-8.094 8.384 0 5.06 2.024 8.243 8.094 8.243 5.058 0 8.1-3.757 8.1-8.243 0-5.056-2.17-8.384-8.1-8.384zm48.541-59.127c-7.803 0-18.214 2.168-23.856 4.77v69.68c12.003 0 11.715 0 11.715-2.453V67.344c3.179-2.022 7.657-2.747 10.84-2.747 7.662 0 8.529 4.336 8.529 15.755v48.431c12.286 0 12.144 0 12.144-2.453V80.933c0-19.95-1.883-26.6-19.372-26.6zm-79.298-31.371c-4.625 0-6.65 3.47-6.65 8.674-.146 6.794 2.17 8.962 5.926 9.108 4.335 0 6.507-3.47 6.65-9.397 0-6.071-1.445-8.385-5.926-8.385zm-84.79 57.971c0-19.95-1.88-26.6-19.37-26.6-7.807 0-18.217 2.168-23.854 4.77v69.68c12.001 0 11.71 0 11.71-2.453V67.344c3.179-2.022 7.661-2.747 10.843-2.747 7.663 0 8.53 4.336 8.53 15.755v48.431c12.287 0 12.14 0 12.14-2.453zm230.408 7.371c-5.058 1.447-14.023 1.734-19.659 1.591.865-20.095 6.216-25.298 12.143-25.298 6.215 0 8.094 4.336 8.237 14.745 0 2.748-.143 6.361-.721 8.962zm12.145-10.263c0-15.467-6.217-23.708-18.365-23.708-12.864 0-25.585 4.482-25.585 42.07 0 29.49 9.687 34.55 23.133 34.55 10.842 0 19.945-3.473 19.945-5.493 0-3.18-.284-8.241-1.009-10.41-4.916 2.745-10.7 4.483-17.638 4.483-7.807 0-11.853-2.604-12.285-20.095 6.934 0 20.237-.29 30.213-2.315 1.157-5.203 1.59-12.576 1.59-19.082zm-194.733 40.191c-2.315 1.59-5.352 2.167-8.533 2.167-6.793 0-10.837-3.18-10.837-26.454 0-23.71 6.358-29.348 12.719-29.348 3.03 0 4.77.433 6.651 1.88zm0-90.353v29.346c-2.46-1.736-5.783-2.892-10.267-2.892-12.43 0-22.265 12.288-22.265 40.913 0 31.371 9.835 35.706 23.564 35.706 8.968 0 15.76-1.446 20.674-4.335V22.527c-9.542 0-11.706 0-11.706 5.352zm30.465 33.971v66.933c11.856 0 12 0 12-2.453V56.5c-9.542 0-12 0-12 5.35zm202.104 59.127c-5.2 0-5.2-5.203-5.2-11.42V66.621h12.432c2.316 0 2.316-1.012 2.316-10.12h-14.748V30.48c-9.54 0-11.706 0-11.706 4.049V56.5h-7.377c-2.458 0-2.6 1.158-2.6 10.121h9.977v41.636c0 13.01 0 22.842 13.73 22.842 5.637 0 12.433-1.16 12.433-4.63 0-2.89-.434-6.07-.871-7.659-3.034 1.301-4.337 2.167-8.386 2.167" fill="#231f20"/></svg>